<svg width="183" height="53" viewBox="0 0 183 53" fill="none" xmlns="http://www.w3.org/2000/svg">
<path d="M26.5 53C41.1355 53 53 41.1355 53 26.5C53 11.8645 41.1355 0 26.5 0C11.8645 0 0 11.8645 0 26.5C0 41.1355 11.8645 53 26.5 53Z" fill="white"/>
<path d="M27.1182 16.745L23.2711 28.5095L27.1182 32.0645V37.5603L21.485 33.1637L19.218 39.5869L12.1765 39.6041L23.8551 9.51465L27.1182 9.53182V16.745Z" fill="#2690B7"/>
<path d="M27.1182 16.745L30.8965 28.5095L27.0667 32.0645V37.5603L32.6998 33.1637L35.1901 39.5869L42.0083 39.6041L30.553 9.51465L27.1182 9.53182V16.745Z" fill="#21A1DC"/>
<path d="M70.3632 19.1399H68.4225H68.3881H66.4474L60.2646 35.2838H64.043L65.2452 32.5359H68.079V32.5187L71.5654 32.5359L72.7676 35.2838H76.5459L70.3632 19.1399ZM68.079 29.1869H67.8214H66.0181L68.4053 23.0385L70.7925 29.1869H68.079Z" fill="#00182E"/>
<path d="M96.6742 19.1399H83.7935V22.2313H88.6023V35.2838H91.8654V22.2313H96.6742V19.1399Z" fill="#00182E"/>
<path d="M139.61 22.5748V19.1399H129.306V22.5748V25.6661V29.101V31.8489V35.2838H132.741H139.61V31.8489H132.741V29.101H137.893V25.6661H132.741V22.5748H139.61Z" fill="#00182E"/>
<path d="M160.219 20.7886L158.502 23.3648C158.502 23.3648 155.754 20.7886 153.693 22.3343C153.693 22.3343 152.147 24.2235 154.724 25.254C157.454 26.336 160.391 26.7825 160.391 30.9215C160.391 35.0433 155.067 37.276 149.228 33.4977L150.859 31.0074C150.859 31.0074 155.668 33.7553 157.042 31.5226C158.416 29.2899 154.638 28.603 154.638 28.603C154.638 28.603 148.97 27.4008 149.829 22.7637C150.688 18.1266 156.699 18.1266 160.219 20.7886Z" fill="#00182E"/>
<path d="M118.657 19.1399H105.777V22.2313H110.585V35.2838H113.849V22.2313H118.657V19.1399Z" fill="#00182E"/>
<path d="M182.718 19.1399H169.837V22.2313H174.646V35.2838H177.909V22.2313H182.718V19.1399Z" fill="#00182E"/>
</svg>
