<svg width="183" height="53" viewBox="0 0 183 53" fill="none" xmlns="http://www.w3.org/2000/svg">
<path d="M26.5 53C41.1355 53 53 41.1355 53 26.5C53 11.8645 41.1355 0 26.5 0C11.8645 0 0 11.8645 0 26.5C0 41.1355 11.8645 53 26.5 53Z" fill="white"/>
<path d="M27.1183 16.745L23.2712 28.5094L27.1183 32.0645V37.5603L21.4851 33.1636L19.2181 39.5868L12.1766 39.604L23.8552 9.51457L27.1183 9.53175V16.745Z" fill="#2690B7"/>
<path d="M27.1183 16.745L30.8966 28.5094L27.0668 32.0645V37.5603L32.6999 33.1636L35.1902 39.5868L42.0084 39.604L30.5531 9.51457L27.1183 9.53175V16.745Z" fill="#21A1DC"/>
<path d="M70.3632 19.14H68.4225H68.3882H66.4475L60.2647 35.2839H64.0431L65.2453 32.536H68.0791V32.5188L71.5655 32.536L72.7677 35.2839H76.546L70.3632 19.14ZM68.0791 29.187H67.8214H66.0181L68.4054 23.0386L70.7926 29.187H68.0791Z" fill="white"/>
<path d="M96.6743 19.14H83.7936V22.2314H88.6024V35.2839H91.8655V22.2314H96.6743V19.14Z" fill="white"/>
<path d="M139.61 22.5749V19.14H129.306V22.5749V25.6662V29.1011V31.849V35.2839H132.74H139.61V31.849H132.74V29.1011H137.893V25.6662H132.74V22.5749H139.61Z" fill="white"/>
<path d="M160.219 20.7887L158.502 23.3649C158.502 23.3649 155.754 20.7887 153.693 22.3344C153.693 22.3344 152.147 24.2236 154.724 25.2541C157.454 26.336 160.391 26.7826 160.391 30.9216C160.391 35.0434 155.067 37.2761 149.228 33.4977L150.859 31.0075C150.859 31.0075 155.668 33.7553 157.042 31.5227C158.416 29.29 154.638 28.603 154.638 28.603C154.638 28.603 148.97 27.4008 149.829 22.7638C150.688 18.1267 156.699 18.1267 160.219 20.7887Z" fill="white"/>
<path d="M118.657 19.14H105.777V22.2314H110.586V35.2839H113.849V22.2314H118.657V19.14Z" fill="white"/>
<path d="M182.718 19.14H169.837V22.2314H174.646V35.2839H177.909V22.2314H182.718V19.14Z" fill="white"/>
</svg>
